<svg xmlns="http://www.w3.org/2000/svg" viewBox="0 0 1440 320">
    <defs>
        <linearGradient 
            id="waveGradiend"
            x1="0%" y1="0%"
            x2="100%" y2="0%"
            spreadMethod="pad"
        >
            <stop offset="0%"   stop-color="#f50057" stop-opacity="1"/>
            <stop offset="100%" stop-color="#3f51b5" stop-opacity="1"/>
        </linearGradient>
    </defs>
    
      <path style="fill:url(#waveGradiend)" fill-opacity="1" d="M0,192L48,165.3C96,139,192,85,288,58.7C384,32,480,32,576,69.3C672,107,768,181,864,213.3C960,245,1056,235,1152,224C1248,213,1344,203,1392,197.3L1440,192L1440,320L1392,320C1344,320,1248,320,1152,320C1056,320,960,320,864,320C768,320,672,320,576,320C480,320,384,320,288,320C192,320,96,320,48,320L0,320Z"></path>

</svg>